<svg class="sound" id="sound-on" xmlns="http://www.w3.org/2000/svg" viewBox="0 0 280.41 257.55">

    <title>sound_on</title>
    <g id="Calque_2" data-name="Calque 2">
        <g id="Calque_6" data-name="Calque 6">
            <path class="cls-1"
                  d="M134.48,20.18a4,4,0,0,0-4.2.4L55.55,77.27H4a4,4,0,0,0-4,4v95a4,4,0,0,0,4,4H55.55L130.28,237a4,4,0,0,0,6.42-3.19v-210A4,4,0,0,0,134.48,20.18ZM128.7,225.73,59.32,173.09a4,4,0,0,0-2.42-.81H8v-87H56.9a4,4,0,0,0,2.42-.82L128.7,31.82Z"/>
            <path class="cls-1"
                  d="M191.66,37.15A4,4,0,1,0,186,42.81a121.57,121.57,0,0,1,0,171.93,4,4,0,1,0,5.65,5.66,129.56,129.56,0,0,0,0-183.25Z"/>
            <path class="cls-1"
                  d="M227.64,1.17A4,4,0,1,0,222,6.83a172.46,172.46,0,0,1,0,243.89,4,4,0,1,0,5.65,5.65C298,186,298,71.53,227.64,1.17Z"/>
        </g>
    </g>
</svg>