<svg xmlns="http://www.w3.org/2000/svg" viewBox="0 0 129.36 129.36"><defs><style>.cls-1{isolation:isolate;}.cls-2{mix-blend-mode:overlay;}.cls-3{fill:#fff;}</style></defs><title>distance_fill_1</title><g class="cls-1"><g id="Calque_2" data-name="Calque 2"><g id="Calque_3" data-name="Calque 3" class="cls-2"><path class="cls-3" d="M126.24,0H3.11A3.12,3.12,0,0,0,0,3.12V126.25a3.11,3.11,0,0,0,3.11,3.11H126.24a3.12,3.12,0,0,0,3.12-3.11V3.12A3.12,3.12,0,0,0,126.24,0ZM102.65,45.05a2.5,2.5,0,0,1-5,0v-10L35.23,97.49h9.82a2.5,2.5,0,0,1,0,5H29.21a2.29,2.29,0,0,1-.94-.19l-.22-.1a2.44,2.44,0,0,1-.43-.28l-.18-.17a2.48,2.48,0,0,1-.73-1.76V84.14a2.5,2.5,0,0,1,5,0V94L93.94,31.71H84.3a2.5,2.5,0,0,1,0-5h15.85a2.5,2.5,0,0,1,2.5,2.5Z"/></g></g></g></svg>