<svg xmlns="http://www.w3.org/2000/svg" xmlns:xlink="http://www.w3.org/1999/xlink" viewBox="0 0 705.07 74.56"><defs><style>.cls-1{fill:url(#Dégradé_sans_nom_5);}</style><linearGradient id="Dégradé_sans_nom_5" x1="41.24" y1="-49.49" x2="660.87" y2="186.36" gradientUnits="userSpaceOnUse"><stop offset="0" stop-color="#eceef0" stop-opacity="0"/><stop offset="1" stop-color="#eceef0"/></linearGradient></defs><title>fall4</title><g id="Calque_2" data-name="Calque 2"><g id="Calque_1-2" data-name="Calque 1"><path class="cls-1" d="M697.76,74c-1.55-.76-3.24-1.57-4.9-2.32s-3.35-1.54-5.05-2.27c-3.36-1.51-6.79-2.93-10.2-4.36s-6.88-2.77-10.32-4.15l-10.41-4c-13.94-5.15-28.07-9.78-42.29-14.15a876.41,876.41,0,0,0-86.73-21.21Q484,13.18,439.36,9.09l-11.14-1c-3.71-.32-7.43-.69-11.15-.85L394.74,6c-14.91-.44-29.82-1-44.74-.8l-11.19,0H336l-2.8.1-5.59.19-22.37.81c-14.88,1.07-29.8,1.76-44.64,3.49L249.48,11l-5.57.56c-1.86.19-3.7.48-5.55.72l-22.2,3-5.55.75-5.52.94-11,1.89-11,1.9-5.52.95c-1.83.34-3.66.75-5.49,1.12A1027.57,1027.57,0,0,0,0,72.92,1028.39,1028.39,0,0,1,171.51,20.37c1.83-.4,3.65-.83,5.48-1.2l5.52-1,11.05-2.05L204.61,14l5.52-1,5.56-.83,22.23-3.34c1.85-.26,3.7-.58,5.56-.8l5.58-.64,11.17-1.29C275.09,4.17,290.06,3.27,305,2L327.47.86l5.61-.27,2.81-.14,2.81,0L350,.2c15-.44,30-.06,45,.17l22.48,1c3.75.12,7.49.44,11.23.7l11.23.81q44.88,3.54,89.33,11.35A882.79,882.79,0,0,1,617.06,34.4c14.44,4.21,28.8,8.7,43,13.72L670.69,52c3.52,1.36,7,2.68,10.56,4.08s7,2.81,10.48,4.31c1.75.72,3.49,1.49,5.22,2.26s3.45,1.55,5.26,2.41a5,5,0,1,1-4.28,9h0Z"/></g></g></svg>