<svg xmlns="http://www.w3.org/2000/svg" viewBox="0 0 1906.72 1072"><defs><style>.cls-1{isolation:isolate;}.cls-2{mix-blend-mode:overlay;}.cls-3{fill:#fff;}</style></defs><title>fond_blanc</title><g class="cls-1"><g id="Calque_2" data-name="Calque 2"><g id="Calque_3" data-name="Calque 3" class="cls-2"><path class="cls-3" d="M1486.39,421.53c4.12,14.08,23,19.93,39.12,23.56l90.43,20.31c9.82,2.21,20.34,4.79,26.7,11.67,13.11,14.17-.77,36.25-19.42,44.45s-40.68,8.56-59.91,15.68-36.09,26.58-26.43,42.71c8.19,13.69,29.08,15.79,46.53,18.6s38.07,12.78,35.53,28.06c-1.78,10.76-14.42,17.19-25.89,21.49A403.17,403.17,0,0,1,1470.64,673c-16.23.75-33.12.65-47.79,6.75s-26.23,20.79-21,34.2c4.53,11.71,19.39,17.69,33.2,20.54s28.75,4.15,40,11.63,15.84,24.34,4.47,31.73c-6.21,4-15.46,4.23-20.22,9.56s-2.4,13.38,3,18.08,13.06,6.81,20.43,8.6a589.56,589.56,0,0,0,152.48,16.39c11.71-.27,23.74-.85,34.84,2.42s21.2,11.49,21.77,21.67c.89,15.88-19.75,25.6-37.58,29.05s-38.8,6.21-47.75,20.07c-9.08,14.07.52,32.79,15.92,41.78s34.72,10.75,53.18,12.25c71.08,5.79,160-32.39,231.11-26.6V1072H0V706.72C21.49,662.35,174.58,658.28,199.47,650c4.53-1.51,9.15-3.43,12.27-7,8.65-10,1.07-25.57-8-35.2s-20.48-20.12-19-33.27c2.08-18.9,27-23.84,46-23.86l118.21-.13c20.23,0,46-4.21,50.59-23.92,2.8-12.12-5-24.61-15.33-31.54s-22.8-9.66-34.78-13a294.06,294.06,0,0,1-54.25-21.24c-14.72-7.52-30.7-19.75-29.35-36.22,1.07-13.09,12.95-22.52,24.63-28.52,49.54-25.47,108.73-18.72,163.79-27.22,18.5-2.86,37.64-8,51.13-21s19-35.87,7.59-50.75c-10.73-14.07-34.27-20.16-34.78-37.85-.2-6.76,3.49-13,7.93-18.14,10.24-11.77,24.65-19.14,35.67-30.19s18.27-29,9.88-42.11c-3.83-6-10.23-9.87-16.59-13.08-50.63-25.57-110.7-23.56-166.65-14.3s-111.26,25.17-168,25.49C118.3,167.22,57.52,148.76,0,125.28V0H1906.72V425.88c-65.27-4.56-143.53-65.07-208.81-69.63-68.08-4.75-144.79-7.09-195.18,33.06C1492.26,397.64,1482.89,409.57,1486.39,421.53Z"/></g></g></g></svg>