<svg xmlns="http://www.w3.org/2000/svg" xmlns:xlink="http://www.w3.org/1999/xlink" viewBox="0 0 424.1 578.41"><defs><style>.cls-1{fill:url(#Dégradé_sans_nom_3);}.cls-2{fill:#eceef0;}.cls-3{fill:#4600ba;}.cls-4{fill:url(#Dégradé_sans_nom_73);}</style><linearGradient id="Dégradé_sans_nom_3" x1="2033.17" y1="-831.25" x2="2034.64" y2="-829.69" gradientTransform="matrix(230.13, 0, 0, -252.17, -467788.15, -208965.69)" gradientUnits="userSpaceOnUse"><stop offset="0" stop-color="#5800e8"/><stop offset="1" stop-color="#ff3894"/></linearGradient><linearGradient id="Dégradé_sans_nom_73" x1="-4.43" y1="407.22" x2="461.05" y2="-90.89" gradientUnits="userSpaceOnUse"><stop offset="0" stop-color="#6100ff"/><stop offset="1" stop-color="#2b007f"/></linearGradient></defs><title>girl_1</title><g id="Calque_2" data-name="Calque 2"><g id="Girl"><path id="corps" class="cls-1" d="M330.43,235.9c37.09,8,47.32,27.19,57.06,43.18,15.1,24.75,20.62,53.89,24.19,82.62,9.09,71.83,12.17,144.23,12.42,216.63h-323c15.75,0,23.3-354,167.77-354Z"/><g id="tete"><path class="cls-2" d="M386.92,106.36a62.25,62.25,0,1,0-124.5,0c0,24.48,14.2,57.93,34.8,75.1l-28.31,43.07,54.65,10.08c-1.38-16.72,2.9-31.58,15-42.87h0l-.12-.05C386.92,184.53,386.92,138,386.92,106.36Z"/></g><path id="ombre" class="cls-3" d="M344,578.41,333.11,366.49V578.41Z"/><path id="cheveux" class="cls-4" d="M384.57,33.07C371.09,9.93,342.45-1.67,315.74.19S264.28,15.7,243.91,33.07c-12.34,10.55-23.86,22.8-39,28.65-19.88,7.63-42.2,2.68-63.3,5.84a82.94,82.94,0,0,0-69.83,94.26c.25,1.7.56,3.4.92,5.09,3.89,18.5,14.2,36,12.82,54.94-1.3,17.54-12.58,32.8-25.49,44.73s-27.83,21.59-40,34.25S-1.69,330.45.25,347.9a42.28,42.28,0,0,0,15.1,27.84,43.9,43.9,0,0,0,45.21,5.93c14-6.41,24-20.13,38.63-25.08,15.58-5.36,32.71.48,47.57,7.55s30,15.58,46.42,15.82c25.57.49,47.73-19.8,57.71-43.26,8.52-20.05,11.93-43.67,12.82-66a108.5,108.5,0,0,0-.81-16.32c-1.38-13.47,9.74-26.46,20.46-36,12-10.55,31.81-18.51,36-33.85,3.41-12.09-12.17-22.64-12.33-35.23-.17-15,13.47-27.11,28-31s19.88-7.87,33-15.09C391.71,90.37,398,56.2,384.57,33.07Z"/></g></g></svg>