<svg xmlns="http://www.w3.org/2000/svg" xmlns:xlink="http://www.w3.org/1999/xlink" viewBox="0 0 1811.72 1020.02"><defs><style>.cls-1{fill:#fff;}.cls-2{isolation:isolate;}.cls-3{mix-blend-mode:overlay;}</style><symbol id="Grosses" data-name="Grosses" viewBox="0 0 3.61 3.61"><circle class="cls-1" cx="1.81" cy="1.81" r="1.81"/></symbol></defs><title>grandes</title><g class="cls-2"><g id="Calque_2" data-name="Calque 2"><g id="Calque_3" data-name="Calque 3" class="cls-3"><use width="3.61" height="3.61" transform="translate(65.31 115.98)" xlink:href="#Grosses"/><use width="3.61" height="3.61" transform="translate(1296.18 229.75)" xlink:href="#Grosses"/><use width="3.61" height="3.61" transform="translate(897.45 206.59)" xlink:href="#Grosses"/><use width="3.61" height="3.61" transform="translate(1298.27 362.57)" xlink:href="#Grosses"/><use width="3.61" height="3.61" transform="translate(474.19 457.37)" xlink:href="#Grosses"/><use width="3.61" height="3.61" transform="translate(1108.52 769.41)" xlink:href="#Grosses"/><use width="3.61" height="3.61" transform="translate(1237.16 748.29)" xlink:href="#Grosses"/><use width="3.61" height="3.61" transform="translate(769.18 347.85)" xlink:href="#Grosses"/><use width="3.61" height="3.61" transform="translate(815.6 628.17)" xlink:href="#Grosses"/><use width="3.61" height="3.61" transform="translate(451 765.19)" xlink:href="#Grosses"/><use width="3.61" height="3.61" transform="translate(480.53 978.09)" xlink:href="#Grosses"/><use width="3.61" height="3.61" transform="translate(1081.22 453.21)" xlink:href="#Grosses"/><use width="3.61" height="3.61" transform="translate(1685.73 349.45)" xlink:href="#Grosses"/><use width="3.61" height="3.61" transform="translate(1502.6 59.02)" xlink:href="#Grosses"/><use width="3.61" height="3.61" transform="translate(1521 609.44)" xlink:href="#Grosses"/><use width="3.61" height="3.61" transform="translate(1353.48 884.76)" xlink:href="#Grosses"/><use width="3.61" height="3.61" transform="translate(1633.36 887.47)" xlink:href="#Grosses"/><use width="3.61" height="3.61" transform="translate(883.07 807.42)" xlink:href="#Grosses"/><use width="3.61" height="3.61" transform="translate(638.53 851.64)" xlink:href="#Grosses"/><use width="3.61" height="3.61" transform="translate(1365.72 503.8)" xlink:href="#Grosses"/><use width="3.61" height="3.61" transform="translate(1428.95 295.11)" xlink:href="#Grosses"/><use width="3.61" height="3.61" transform="translate(1148.55 120.1)" xlink:href="#Grosses"/><use width="3.61" height="3.61" transform="translate(948.47 316.09)" xlink:href="#Grosses"/><use width="3.61" height="3.61" transform="translate(488.98 137.01)" xlink:href="#Grosses"/><use width="3.61" height="3.61" transform="translate(274.05 155.96)" xlink:href="#Grosses"/><use width="3.61" height="3.61" transform="translate(155.93 558.59)" xlink:href="#Grosses"/><use width="3.61" height="3.61" transform="translate(92.72 784.12)" xlink:href="#Grosses"/><use width="3.61" height="3.61" transform="translate(113.82 963.3)" xlink:href="#Grosses"/><use width="3.61" height="3.61" transform="translate(271.85 569.14)" xlink:href="#Grosses"/><use width="3.61" height="3.61" transform="translate(0 341.52)" xlink:href="#Grosses"/><use width="3.61" height="3.61" transform="translate(788.26 326.63)" xlink:href="#Grosses"/><use width="3.61" height="3.61" transform="translate(754.54 914.91)" xlink:href="#Grosses"/><use width="3.61" height="3.61" transform="translate(676.49 398.4)" xlink:href="#Grosses"/><use width="3.61" height="3.61" transform="translate(722.89 107.47)" xlink:href="#Grosses"/><use width="3.61" height="3.61" transform="translate(931.45 333.11)" xlink:href="#Grosses"/><use width="3.61" height="3.61" transform="translate(902.03 579.66)" xlink:href="#Grosses"/><use width="3.61" height="3.61" transform="translate(1605.27 561.02)" xlink:href="#Grosses"/><use width="3.61" height="3.61" transform="translate(1666.29 542.06)" xlink:href="#Grosses"/><use width="3.61" height="3.61" transform="translate(1764.61 131.96)" xlink:href="#Grosses"/><use width="3.61" height="3.61" transform="translate(1197.14 139.13)" xlink:href="#Grosses"/><use width="3.61" height="3.61" transform="translate(1201.33 73.68)" xlink:href="#Grosses"/><use width="3.61" height="3.61" transform="translate(988.45 198.07)" xlink:href="#Grosses"/><use width="3.61" height="3.61" transform="translate(1015.86 389.97)" xlink:href="#Grosses"/><use width="3.61" height="3.61" transform="translate(579.54 767.3)" xlink:href="#Grosses"/><use width="3.61" height="3.61" transform="translate(227.66 895.9)" xlink:href="#Grosses"/><use width="3.61" height="3.61" transform="translate(480.53 508.05)" xlink:href="#Grosses"/><use width="3.61" height="3.61" transform="translate(307.77 246.73)" xlink:href="#Grosses"/><use width="3.61" height="3.61" transform="translate(946.34 687.2)" xlink:href="#Grosses"/><use width="3.61" height="3.61" transform="translate(1256.44 1016.41)" xlink:href="#Grosses"/><use width="3.61" height="3.61" transform="translate(1032.72 535.44)" xlink:href="#Grosses"/><use width="3.61" height="3.61" transform="translate(537.46)" xlink:href="#Grosses"/><use width="3.61" height="3.61" transform="translate(286.67 206.61)" xlink:href="#Grosses"/><use width="3.61" height="3.61" transform="translate(46.34 632.36)" xlink:href="#Grosses"/><use width="3.61" height="3.61" transform="translate(636.48 712.46)" xlink:href="#Grosses"/><use width="3.61" height="3.61" transform="translate(689.15 594.42)" xlink:href="#Grosses"/><use width="3.61" height="3.61" transform="translate(1403.64 744.08)" xlink:href="#Grosses"/><use width="3.61" height="3.61" transform="translate(1574.85 824.19)" xlink:href="#Grosses"/><use width="3.61" height="3.61" transform="translate(1382.64 895.92)" xlink:href="#Grosses"/><use width="3.61" height="3.61" transform="translate(1142.3 246.63)" xlink:href="#Grosses"/><use width="3.61" height="3.61" transform="translate(1232.93 518.56)" xlink:href="#Grosses"/><use width="3.61" height="3.61" transform="translate(882.63 10.26)" xlink:href="#Grosses"/><use width="3.61" height="3.61" transform="translate(914.84 89.59)" xlink:href="#Grosses"/><use width="3.61" height="3.61" transform="translate(1536.47 63.26)" xlink:href="#Grosses"/><use width="3.61" height="3.61" transform="translate(1652.86 225.98)" xlink:href="#Grosses"/><use width="3.61" height="3.61" transform="translate(893.59 723.07)" xlink:href="#Grosses"/><use width="3.61" height="3.61" transform="translate(322.46 670.34)" xlink:href="#Grosses"/><use width="3.61" height="3.61" transform="translate(1685.93 737.25)" xlink:href="#Grosses"/><use width="3.61" height="3.61" transform="translate(1685.93 383.42)" xlink:href="#Grosses"/><use width="3.61" height="3.61" transform="translate(1808.11 778.67)" xlink:href="#Grosses"/><use width="3.61" height="3.61" transform="translate(1748.04 780.76)" xlink:href="#Grosses"/><use width="3.61" height="3.61" transform="translate(1746.06 362.63)" xlink:href="#Grosses"/><use width="3.61" height="3.61" transform="translate(1160.27 784.93)" xlink:href="#Grosses"/><use width="3.61" height="3.61" transform="translate(1224.4 863.61)" xlink:href="#Grosses"/><use width="3.61" height="3.61" transform="translate(678.1 863.62)" xlink:href="#Grosses"/><use width="3.61" height="3.61" transform="translate(340.7 519.92)" xlink:href="#Grosses"/><use width="3.61" height="3.61" transform="translate(560.07 298.43)" xlink:href="#Grosses"/><use width="3.61" height="3.61" transform="translate(231.02 122.47)" xlink:href="#Grosses"/><use width="3.61" height="3.61" transform="translate(158.57 83.16)" xlink:href="#Grosses"/><use width="3.61" height="3.61" transform="translate(187.5 213.66)" xlink:href="#Grosses"/><use width="3.61" height="3.61" transform="translate(214.46 844.88)" xlink:href="#Grosses"/></g></g></g></svg>