<svg xmlns="http://www.w3.org/2000/svg" viewBox="0 0 894.26 447.63"><defs><style>.cls-1{fill:none;stroke:#fff;stroke-linecap:round;stroke-miterlimit:10;}</style></defs><title>Graph</title><g id="Calque_2" data-name="Calque 2"><g id="Graph"><line id="Tracé_1" data-name="Tracé 1" class="cls-1" x1="447.13" y1="447.13" x2="447.13" y2="0.5"/><path id="Tracé_2" data-name="Tracé 2" class="cls-1" d="M536.46,447.13a89.33,89.33,0,1,0-178.66,0v0"/><path id="Tracé_3" data-name="Tracé 3" class="cls-1" d="M625.78,447.13c0-98.62-80-178.65-178.65-178.65s-178.65,80-178.65,178.65"/><path id="Tracé_4" data-name="Tracé 4" class="cls-1" d="M715.11,447.13c0-147.93-120.05-268-268-268s-268,120-268,268"/><path id="Tracé_5" data-name="Tracé 5" class="cls-1" d="M804.43,447.13c0-197.39-159.91-357.3-357.3-357.3S89.83,249.89,89.83,447.13"/><path id="Tracé_6" data-name="Tracé 6" class="cls-1" d="M893.76,447.13C893.76,200.43,693.82.5,447.13.5S.5,200.43.5,447.13"/><line id="Tracé_7" data-name="Tracé 7" class="cls-1" x1="0.5" y1="447.13" x2="893.76" y2="447.13"/></g></g></svg>