<svg xmlns="http://www.w3.org/2000/svg" viewBox="0 0 115.83 46.19"><defs><style>.cls-1,.cls-3{fill:#fff;}.cls-1,.cls-2{stroke:#fff;stroke-miterlimit:10;stroke-width:0.25px;}.cls-1{opacity:0.4;}.cls-2{fill:none;}</style></defs><title>legende</title><g id="Calque_2" data-name="Calque 2"><g id="Calque_3" data-name="Calque 3"><circle class="cls-1" cx="57.82" cy="43.4" r="2.66"/><circle class="cls-1" cx="57.82" cy="40.73" r="5.33"/><circle class="cls-1" cx="57.82" cy="35.41" r="10.66"/><circle class="cls-1" cx="57.82" cy="24.75" r="21.32"/><circle class="cls-2" cx="57.82" cy="43.4" r="2.66"/><circle class="cls-2" cx="57.82" cy="40.73" r="5.33"/><circle class="cls-2" cx="57.82" cy="35.41" r="10.66"/><circle class="cls-2" cx="57.82" cy="24.75" r="21.32"/><line class="cls-2" x1="29.57" y1="40.73" x2="57.82" y2="40.73"/><line class="cls-2" x1="57.82" y1="35.41" x2="86.4" y2="35.41"/><line class="cls-2" x1="29.57" y1="24.75" x2="58.15" y2="24.75"/><line class="cls-2" x1="57.82" y1="3.43" x2="86.41" y2="3.43"/><path class="cls-3" d="M11.73,39l-3.38,1.4,2.3,1.21-.11.22L7.83,40.35l3.83-1.57Z"/><path class="cls-3" d="M14.51,42.81h-.6l.88-3a4.31,4.31,0,0,1-1,.42l0-.14a3.76,3.76,0,0,0,.93-.39,7,7,0,0,0,.74-.53h.14Z"/><path class="cls-3" d="M20.83,39.26a.36.36,0,0,1,.1.27.57.57,0,0,1-.1.31.32.32,0,0,1-.3.17.25.25,0,0,1-.2-.08.29.29,0,0,1-.07-.2.4.4,0,0,1,.07-.22.8.8,0,0,1,.15-.21h0l-.13,0-.13.08a.79.79,0,0,0-.17.19c0,.09-.1.19-.16.33a2.62,2.62,0,0,1-.35.59.92.92,0,0,1-.51.29,1.53,1.53,0,0,1,.72.18.54.54,0,0,1,.28.51,1.37,1.37,0,0,1,0,.19l-.14.69a.57.57,0,0,0,0,.14.16.16,0,0,0,0,.11.17.17,0,0,0,.12,0,.33.33,0,0,0,.26-.16,2.32,2.32,0,0,0,.25-.54l.09-.26h.13l-.17.51a.86.86,0,0,1-.82.71.49.49,0,0,1-.33-.11.44.44,0,0,1-.12-.34.75.75,0,0,1,0-.21l.13-.59a1.58,1.58,0,0,0,0-.26.46.46,0,0,0-.18-.4,1.44,1.44,0,0,0-.64-.16l-.58,2h-.6l1.37-4.62a.93.93,0,0,0,0-.19.22.22,0,0,0-.11-.2.71.71,0,0,0-.37-.07l0-.14a2.71,2.71,0,0,0,1.25-.29l-1,3.46a1.11,1.11,0,0,0,.53-.16.87.87,0,0,0,.31-.29,3.46,3.46,0,0,0,.23-.44c.06-.13.12-.25.17-.34a1,1,0,0,1,.2-.22.74.74,0,0,1,.42-.16A.38.38,0,0,1,20.83,39.26Z"/><path class="cls-3" d="M24.47,39a.44.44,0,0,1,.1.32.37.37,0,0,1-.09.27.26.26,0,0,1-.21.1.32.32,0,0,1-.23-.09.33.33,0,0,1-.1-.26A.93.93,0,0,1,24,39a1,1,0,0,0-.4.3.68.68,0,0,1,.29.62,1.46,1.46,0,0,1-.14.6,1.57,1.57,0,0,1-.43.5,1.51,1.51,0,0,1-.63.28l-.23.12c-.22.12-.38.21-.48.28s-.15.14-.15.2a.16.16,0,0,0,.1.13,1.35,1.35,0,0,0,.32.12l.51.13a2,2,0,0,1,.59.23.4.4,0,0,1,.19.37.93.93,0,0,1-.22.56,1.65,1.65,0,0,1-.67.51,2.67,2.67,0,0,1-1.12.21,1.87,1.87,0,0,1-.81-.14.43.43,0,0,1-.28-.38.67.67,0,0,1,.25-.48,1.92,1.92,0,0,1,.73-.38l0,.11a.69.69,0,0,0-.45.63.46.46,0,0,0,.18.39.81.81,0,0,0,.49.13,1.65,1.65,0,0,0,.63-.13,1.45,1.45,0,0,0,.54-.33.59.59,0,0,0,.21-.42c0-.07,0-.11-.06-.13a.64.64,0,0,0-.22-.08l-1.07-.27c-.25-.07-.37-.2-.37-.42a.56.56,0,0,1,.23-.42,3.72,3.72,0,0,1,.84-.51h0a1.12,1.12,0,0,1-.66-.19.7.7,0,0,1-.25-.57,1.54,1.54,0,0,1,.16-.62,1.39,1.39,0,0,1,.49-.57,1.46,1.46,0,0,1,.86-.24,1.24,1.24,0,0,1,.5.09A1,1,0,0,1,23.8,39a.74.74,0,0,1,.37-.1A.42.42,0,0,1,24.47,39ZM23,41a1.46,1.46,0,0,0,.26-.58,3.26,3.26,0,0,0,.07-.6.88.88,0,0,0-.07-.38.26.26,0,0,0-.26-.13.62.62,0,0,0-.53.29,2,2,0,0,0-.27.65,2.89,2.89,0,0,0-.07.58c0,.27.12.41.37.41A.59.59,0,0,0,23,41Z"/><path class="cls-3" d="M95.29,33.65l-3.37,1.4,2.29,1.21-.11.22L91.4,35l3.82-1.57Z"/><path class="cls-3" d="M98.07,37.48h-.6l.89-3a5,5,0,0,1-1,.43l0-.15a3.84,3.84,0,0,0,.92-.39,6.16,6.16,0,0,0,.75-.53h.14Z"/><path class="cls-3" d="M102.62,34.14a1.31,1.31,0,0,1,.28.9,2.61,2.61,0,0,1-.3,1.21,2.7,2.7,0,0,1-.81,1,1.82,1.82,0,0,1-1.1.37,1.06,1.06,0,0,1-.83-.32,1.26,1.26,0,0,1-.3-.91,2.53,2.53,0,0,1,.31-1.21,2.78,2.78,0,0,1,.84-1,1.88,1.88,0,0,1,1.1-.36A1,1,0,0,1,102.62,34.14Zm-1.66.15a2.59,2.59,0,0,0-.55.92,3.48,3.48,0,0,0-.21,1.2q0,1.05.63,1.05a1,1,0,0,0,.71-.37,2.62,2.62,0,0,0,.53-1,3.77,3.77,0,0,0,.19-1.2,1.49,1.49,0,0,0-.15-.77.5.5,0,0,0-.43-.23A1,1,0,0,0,101,34.29Z"/><path class="cls-3" d="M108.32,33.93a.41.41,0,0,1,.1.27.63.63,0,0,1-.1.31.34.34,0,0,1-.31.17.25.25,0,0,1-.2-.08.35.35,0,0,1-.07-.2.43.43,0,0,1,.07-.22A.65.65,0,0,1,108,34h0l-.13,0a.42.42,0,0,0-.12.08.48.48,0,0,0-.17.2,3,3,0,0,0-.17.32,2.62,2.62,0,0,1-.35.59.92.92,0,0,1-.51.29,1.53,1.53,0,0,1,.72.18.54.54,0,0,1,.28.51,1.37,1.37,0,0,1,0,.19l-.14.69a.57.57,0,0,0,0,.14.16.16,0,0,0,0,.11.19.19,0,0,0,.12,0,.34.34,0,0,0,.26-.17,2,2,0,0,0,.25-.54l.09-.26h.13l-.17.51a.86.86,0,0,1-.82.71.49.49,0,0,1-.33-.11.44.44,0,0,1-.12-.34,1.49,1.49,0,0,1,0-.21l.13-.59a1.48,1.48,0,0,0,0-.26.43.43,0,0,0-.18-.39,1.29,1.29,0,0,0-.63-.17l-.59,2H105l1.37-4.62a.54.54,0,0,0,0-.19.22.22,0,0,0-.11-.2.83.83,0,0,0-.37-.07l0-.14a2.71,2.71,0,0,0,1.25-.29l-1,3.46a1.1,1.1,0,0,0,.52-.16A.87.87,0,0,0,107,35a3.25,3.25,0,0,0,.23-.43,2.66,2.66,0,0,1,.17-.34.9.9,0,0,1,.2-.23.74.74,0,0,1,.42-.16A.42.42,0,0,1,108.32,33.93Z"/><path class="cls-3" d="M112,33.64a.44.44,0,0,1,.11.32.37.37,0,0,1-.09.27.28.28,0,0,1-.22.1.33.33,0,0,1-.23-.09.33.33,0,0,1-.1-.26.83.83,0,0,1,.06-.29.87.87,0,0,0-.39.29.7.7,0,0,1,.29.62,1.33,1.33,0,0,1-.15.6,1.46,1.46,0,0,1-.43.5,1.51,1.51,0,0,1-.63.28l-.23.12a5.24,5.24,0,0,0-.47.28c-.1.07-.15.14-.15.2a.17.17,0,0,0,.09.14l.32.11.51.13a2,2,0,0,1,.59.23.4.4,0,0,1,.19.37.93.93,0,0,1-.22.56,1.65,1.65,0,0,1-.67.51,2.63,2.63,0,0,1-1.12.21,1.93,1.93,0,0,1-.81-.14.42.42,0,0,1-.28-.38.67.67,0,0,1,.25-.48,1.92,1.92,0,0,1,.73-.38l0,.11a.69.69,0,0,0-.45.63.45.45,0,0,0,.18.39.83.83,0,0,0,.49.13,1.93,1.93,0,0,0,1.17-.45.61.61,0,0,0,.21-.43.14.14,0,0,0,0-.13.83.83,0,0,0-.23-.08l-1.06-.27c-.25-.06-.38-.2-.38-.42a.6.6,0,0,1,.23-.42,3.61,3.61,0,0,1,.85-.51h0a1.07,1.07,0,0,1-.65-.19.67.67,0,0,1-.25-.57,1.52,1.52,0,0,1,.15-.62,1.42,1.42,0,0,1,1.35-.81,1.21,1.21,0,0,1,.5.09,1.18,1.18,0,0,1,.32-.27.74.74,0,0,1,.37-.1A.4.4,0,0,1,112,33.64Zm-1.52,2a1.48,1.48,0,0,0,.26-.57,2.72,2.72,0,0,0,.07-.61.75.75,0,0,0-.07-.38.26.26,0,0,0-.26-.13.63.63,0,0,0-.53.29,2,2,0,0,0-.27.65,2.89,2.89,0,0,0-.07.58c0,.27.12.41.37.41A.59.59,0,0,0,110.43,35.64Z"/><path class="cls-3" d="M3.9,23,.52,24.39,2.81,25.6l-.11.22L0,24.37l3.83-1.58Z"/><path class="cls-3" d="M6.68,26.83H6.07l.89-3a5,5,0,0,1-1,.43l0-.15a3.71,3.71,0,0,0,.93-.39,7,7,0,0,0,.74-.53h.14Z"/><path class="cls-3" d="M11.22,23.48a1.34,1.34,0,0,1,.28.91,2.6,2.6,0,0,1-.3,1.2,2.54,2.54,0,0,1-.81,1,1.82,1.82,0,0,1-1.09.37,1.1,1.1,0,0,1-.84-.31,1.31,1.31,0,0,1-.3-.92,2.56,2.56,0,0,1,.31-1.21,2.66,2.66,0,0,1,.84-.95,1.84,1.84,0,0,1,1.1-.37A1,1,0,0,1,11.22,23.48Zm-1.66.15a2.64,2.64,0,0,0-.55.93,3.43,3.43,0,0,0-.21,1.19q0,1,.63,1.05a1,1,0,0,0,.72-.37,2.76,2.76,0,0,0,.52-.95,3.77,3.77,0,0,0,.19-1.2,1.45,1.45,0,0,0-.15-.76.49.49,0,0,0-.43-.24A1,1,0,0,0,9.56,23.63Z"/><path class="cls-3" d="M15.14,23.48a1.39,1.39,0,0,1,.28.91,2.6,2.6,0,0,1-.3,1.2,2.66,2.66,0,0,1-.82,1,1.79,1.79,0,0,1-1.09.37,1.09,1.09,0,0,1-.83-.31,1.31,1.31,0,0,1-.3-.92,2.56,2.56,0,0,1,.31-1.21,2.66,2.66,0,0,1,.84-.95,1.82,1.82,0,0,1,1.1-.37A1,1,0,0,1,15.14,23.48Zm-1.66.15a2.81,2.81,0,0,0-.56.93,3.43,3.43,0,0,0-.21,1.19q0,1,.63,1.05a1,1,0,0,0,.72-.37,2.47,2.47,0,0,0,.52-.95,3.78,3.78,0,0,0,.2-1.2,1.45,1.45,0,0,0-.15-.76.5.5,0,0,0-.43-.24A1,1,0,0,0,13.48,23.63Z"/><path class="cls-3" d="M20.83,23.27a.36.36,0,0,1,.1.27.6.6,0,0,1-.1.32.31.31,0,0,1-.3.16.25.25,0,0,1-.2-.08.27.27,0,0,1-.07-.2.43.43,0,0,1,.07-.22.8.8,0,0,1,.15-.21h0a.28.28,0,0,0-.13,0,.56.56,0,0,0-.13.07.85.85,0,0,0-.17.2c0,.08-.1.19-.16.33a2.53,2.53,0,0,1-.35.58.92.92,0,0,1-.51.29,1.53,1.53,0,0,1,.72.18.54.54,0,0,1,.28.51,1.37,1.37,0,0,1,0,.19l-.14.69a.61.61,0,0,0,0,.14.16.16,0,0,0,0,.11s.06,0,.12,0a.34.34,0,0,0,.26-.17,2.13,2.13,0,0,0,.25-.54l.09-.26h.13l-.17.51c-.15.48-.43.71-.82.71a.44.44,0,0,1-.33-.11.43.43,0,0,1-.12-.34.65.65,0,0,1,0-.2l.13-.6a1.48,1.48,0,0,0,0-.26.46.46,0,0,0-.18-.39,1.3,1.3,0,0,0-.64-.17l-.58,2h-.6l1.37-4.63a1,1,0,0,0,0-.18.24.24,0,0,0-.11-.21.86.86,0,0,0-.37-.06l0-.15a2.71,2.71,0,0,0,1.25-.28l-1,3.45a1.23,1.23,0,0,0,.53-.15.89.89,0,0,0,.31-.3,3.25,3.25,0,0,0,.23-.43,3.56,3.56,0,0,1,.17-.34.85.85,0,0,1,.2-.22.67.67,0,0,1,.42-.16A.38.38,0,0,1,20.83,23.27Z"/><path class="cls-3" d="M24.47,23a.41.41,0,0,1,.1.31.41.41,0,0,1-.09.28.29.29,0,0,1-.21.09.32.32,0,0,1-.23-.09.33.33,0,0,1-.1-.26A.88.88,0,0,1,24,23a1,1,0,0,0-.4.29.68.68,0,0,1,.29.62,1.39,1.39,0,0,1-.14.6,1.57,1.57,0,0,1-.43.5,1.39,1.39,0,0,1-.63.28l-.23.13a4.1,4.1,0,0,0-.48.27q-.15.11-.15.21c0,.05,0,.09.1.13a2.24,2.24,0,0,0,.32.11l.51.13a2.33,2.33,0,0,1,.59.23.41.41,0,0,1,.19.37.91.91,0,0,1-.22.56,1.65,1.65,0,0,1-.67.51,2.67,2.67,0,0,1-1.12.21,1.87,1.87,0,0,1-.81-.14.42.42,0,0,1-.28-.38.67.67,0,0,1,.25-.48,1.79,1.79,0,0,1,.73-.37l0,.1a.71.71,0,0,0-.45.63.43.43,0,0,0,.18.39.81.81,0,0,0,.49.13,1.84,1.84,0,0,0,.63-.12,1.77,1.77,0,0,0,.54-.33.61.61,0,0,0,.21-.43.14.14,0,0,0-.06-.13.64.64,0,0,0-.22-.08l-1.07-.27c-.25-.06-.37-.2-.37-.41a.57.57,0,0,1,.23-.43,3.72,3.72,0,0,1,.84-.51h0a1.05,1.05,0,0,1-.66-.19.7.7,0,0,1-.25-.57,1.54,1.54,0,0,1,.16-.62,1.39,1.39,0,0,1,.49-.57,1.53,1.53,0,0,1,.86-.23,1.24,1.24,0,0,1,.5.09A1,1,0,0,1,23.8,23a.75.75,0,0,1,.37-.11A.42.42,0,0,1,24.47,23ZM23,25a1.42,1.42,0,0,0,.26-.57,3.46,3.46,0,0,0,.07-.61.92.92,0,0,0-.07-.38.26.26,0,0,0-.26-.13.61.61,0,0,0-.53.3,1.82,1.82,0,0,0-.27.64,2.89,2.89,0,0,0-.07.58c0,.28.12.42.37.42A.6.6,0,0,0,23,25Z"/><path class="cls-3" d="M91.27,4.24,94.45,2.9,91.89,1.53l.11-.2,3,1.6L91.33,4.44Z"/><path class="cls-3" d="M97.93,5.51h-.6l.89-3a5.58,5.58,0,0,1-1,.42l0-.14a4.3,4.3,0,0,0,.92-.39,6.3,6.3,0,0,0,.75-.54H99Z"/><path class="cls-3" d="M102.48,2.17a1.29,1.29,0,0,1,.28.9,2.67,2.67,0,0,1-.3,1.21,2.7,2.7,0,0,1-.81,1,1.89,1.89,0,0,1-1.1.37,1.1,1.1,0,0,1-.83-.32,1.29,1.29,0,0,1-.3-.92,2.5,2.5,0,0,1,.31-1.2,2.78,2.78,0,0,1,.84-1,1.89,1.89,0,0,1,1.1-.37A1,1,0,0,1,102.48,2.17Zm-1.66.15a2.5,2.5,0,0,0-.55.92,3.44,3.44,0,0,0-.21,1.2c0,.69.21,1,.63,1a1,1,0,0,0,.71-.36,2.76,2.76,0,0,0,.53-1A3.75,3.75,0,0,0,102.12,3,1.49,1.49,0,0,0,102,2.2a.5.5,0,0,0-.43-.23A1,1,0,0,0,100.82,2.32Z"/><path class="cls-3" d="M106.39,2.17a1.3,1.3,0,0,1,.29.9,2.69,2.69,0,0,1-.31,1.21,2.7,2.7,0,0,1-.81,1,1.86,1.86,0,0,1-1.09.37,1.08,1.08,0,0,1-.83-.32,1.25,1.25,0,0,1-.31-.92,2.51,2.51,0,0,1,.32-1.2,2.86,2.86,0,0,1,.83-1,1.94,1.94,0,0,1,1.11-.37A1,1,0,0,1,106.39,2.17Zm-1.65.15a2.52,2.52,0,0,0-.56.92,3.44,3.44,0,0,0-.21,1.2c0,.69.21,1,.63,1a1,1,0,0,0,.72-.36,2.74,2.74,0,0,0,.52-1A3.76,3.76,0,0,0,106,3a1.38,1.38,0,0,0-.16-.77.49.49,0,0,0-.43-.23A1,1,0,0,0,104.74,2.32Z"/><path class="cls-3" d="M112.09,2a.36.36,0,0,1,.1.27.57.57,0,0,1-.1.32.31.31,0,0,1-.3.16.22.22,0,0,1-.2-.08.26.26,0,0,1-.07-.19.49.49,0,0,1,.06-.22.83.83,0,0,1,.16-.21h0a.25.25,0,0,0-.13,0l-.13.07a.85.85,0,0,0-.17.2,2.58,2.58,0,0,0-.16.33,2.67,2.67,0,0,1-.35.58.87.87,0,0,1-.51.29,1.65,1.65,0,0,1,.72.19.54.54,0,0,1,.28.51,1.41,1.41,0,0,1,0,.18l-.14.7a.46.46,0,0,0,0,.14.18.18,0,0,0,0,.11.17.17,0,0,0,.12,0,.33.33,0,0,0,.26-.16,2.24,2.24,0,0,0,.25-.55l.08-.25H112l-.16.5c-.15.48-.43.72-.83.72a.48.48,0,0,1-.32-.11.46.46,0,0,1-.13-.34.76.76,0,0,1,0-.21l.13-.6a1.38,1.38,0,0,0,0-.25.45.45,0,0,0-.19-.4,1.24,1.24,0,0,0-.63-.16l-.58,2h-.6L110.1.89a.81.81,0,0,0,0-.19A.2.2,0,0,0,110,.5a.65.65,0,0,0-.36-.07l0-.15A2.74,2.74,0,0,0,111,0l-1,3.45a1.23,1.23,0,0,0,.53-.15,1,1,0,0,0,.31-.29,3.46,3.46,0,0,0,.23-.44,3.56,3.56,0,0,1,.17-.34.7.7,0,0,1,.2-.22.67.67,0,0,1,.41-.16A.4.4,0,0,1,112.09,2Z"/><path class="cls-3" d="M115.72,1.67a.38.38,0,0,1,.11.31.39.39,0,0,1-.09.28.3.3,0,0,1-.21.1.36.36,0,0,1-.24-.09.37.37,0,0,1-.1-.27.93.93,0,0,1,.07-.29,1,1,0,0,0-.4.29.7.7,0,0,1,.29.63,1.26,1.26,0,0,1-.15.59,1.57,1.57,0,0,1-.42.51A1.51,1.51,0,0,1,114,4l-.23.12c-.22.12-.38.21-.48.28s-.15.13-.15.2,0,.09.1.13a1.06,1.06,0,0,0,.32.11L114,5a2.09,2.09,0,0,1,.58.23.43.43,0,0,1,.2.38,1,1,0,0,1-.22.56,1.55,1.55,0,0,1-.67.5,2.67,2.67,0,0,1-1.12.21,1.8,1.8,0,0,1-.82-.14.43.43,0,0,1-.28-.38.69.69,0,0,1,.26-.47,1.73,1.73,0,0,1,.73-.38l0,.1a.71.71,0,0,0-.45.63.46.46,0,0,0,.18.4.86.86,0,0,0,.49.13,1.87,1.87,0,0,0,.63-.13,1.45,1.45,0,0,0,.54-.33.61.61,0,0,0,.21-.43.15.15,0,0,0-.06-.13.78.78,0,0,0-.23-.07L113,5.39c-.25-.07-.37-.21-.37-.42a.6.6,0,0,1,.22-.43,3.85,3.85,0,0,1,.85-.51h-.05a1,1,0,0,1-.65-.19.66.66,0,0,1-.25-.56,1.43,1.43,0,0,1,.16-.63,1.31,1.31,0,0,1,.49-.56,1.43,1.43,0,0,1,.86-.24,1.24,1.24,0,0,1,.5.09.94.94,0,0,1,.32-.27.74.74,0,0,1,.37-.1A.39.39,0,0,1,115.72,1.67Zm-1.51,2a1.49,1.49,0,0,0,.26-.57,3.46,3.46,0,0,0,.07-.6,1,1,0,0,0-.07-.39.29.29,0,0,0-.26-.12.6.6,0,0,0-.53.29,1.87,1.87,0,0,0-.27.65,2.81,2.81,0,0,0-.07.57q0,.42.36.42A.58.58,0,0,0,114.21,3.66Z"/></g></g></svg>