<svg xmlns="http://www.w3.org/2000/svg" viewBox="0 0 30.99 30.99"><defs><style>.cls-1{fill:#fff;}</style></defs><title>loupe_icon</title><g id="Calque_2" data-name="Calque 2"><g id="Calque_3" data-name="Calque 3"><path id="Search" class="cls-1" d="M29.16,31a1.85,1.85,0,0,1-1.33-.56l-8.47-8.49h0a11.82,11.82,0,0,1-7.13,2.35h-.06A12.2,12.2,0,0,1,3.52,3.52,12.12,12.12,0,0,1,12,0h.05A12.25,12.25,0,0,1,24.26,12.19a11.94,11.94,0,0,1-2.32,7.16l8.48,8.48a1.84,1.84,0,0,1,.07,2.59A1.82,1.82,0,0,1,29.16,31ZM12.05,2.44a9.72,9.72,0,0,0,.12,19.43h0A9.72,9.72,0,0,0,12.1,2.44Z"/></g></g></svg>