<svg xmlns="http://www.w3.org/2000/svg" xmlns:xlink="http://www.w3.org/1999/xlink" viewBox="0 0 896.28 400.39"><defs><style>.cls-1{fill:url(#Dégradé_sans_nom_85);}</style><linearGradient id="Dégradé_sans_nom_85" y1="200.2" x2="896.28" y2="200.2" gradientUnits="userSpaceOnUse"><stop offset="0" stop-color="#fff" stop-opacity="0"/><stop offset="1" stop-color="#fff"/></linearGradient></defs><title>meteor_1</title><g id="Calque_2" data-name="Calque 2"><g id="meteor"><path id="meteor-2" data-name="meteor" class="cls-1" d="M884,397.79c-1.53-1.8-3.19-3.89-4.86-5.69-1.67-2-3.34-3.89-5.14-5.7-3.47-3.89-7-7.5-10.42-11.39s-7.09-7.37-10.7-11.12l-11-11c-14.73-14.44-30-28.34-45.57-42a1155.22,1155.22,0,0,0-98-76.14c-33.9-23.75-69.06-45.85-105-66.13l-13.61-7.51c-4.59-2.5-9-5.14-13.62-7.36L538.4,139.49c-18.62-9-37.24-18.2-56.27-26.4L468,106.84l-3.61-1.53-3.61-1.53-7.23-2.91L424.74,89.2c-19.45-7.09-38.77-14.73-58.63-21l-14.73-4.86L344,60.85c-2.5-.83-5-1.53-7.5-2.22l-29.87-8.76-7.5-2.22-7.51-1.94-15-3.9-15-3.89L254.12,36c-2.5-.56-5-1.11-7.64-1.67A1429.58,1429.58,0,0,0,0,0,1413.14,1413.14,0,0,1,247.32,31c2.5.57,5.14,1,7.64,1.53l7.64,1.81,15.15,3.61,15.14,3.62,7.64,1.8,7.5,2.08,30,8.48,7.5,2.08,7.51,2.37,14.86,4.72c20,6,39.46,13.33,59,20.29l29.18,11.39,7.23,2.78L467,98.93l3.61,1.53,14.32,6.11c19.31,7.92,38.07,17,57,25.84l27.93,14c4.73,2.22,9.31,4.86,13.9,7.22L597.46,161q54.82,30,106.85,65.16a1221.92,1221.92,0,0,1,99.9,75.59c15.84,13.61,31.54,27.37,46.68,41.82l11.26,11,11.11,11.11c3.62,3.75,7.23,7.5,10.84,11.39,1.81,2,3.61,3.9,5.28,5.84s3.47,3.89,5.28,6.11a6.9,6.9,0,1,1-10.56,8.89h0Z"/></g></g></svg>