<svg xmlns="http://www.w3.org/2000/svg" viewBox="0 0 280.5 257.55"><defs><style>.cls-1{fill:#fff;}</style></defs><title>sound_off</title><g id="Calque_2" data-name="Calque 2"><g id="Calque_6" data-name="Calque 6"><path class="cls-1" d="M128.7,225.73,59.31,173.09a4,4,0,0,0-2.41-.81H8v-87H56.9a4,4,0,0,0,2.41-.81l8.08-6.13-6-5.49-5.84,4.43H4a4,4,0,0,0-4,4v95a4,4,0,0,0,4,4H55.55L130.28,237a4,4,0,0,0,2.42.82,4,4,0,0,0,1.78-.42,4,4,0,0,0,2.22-3.58v-92l-8-7.33Z"/><path class="cls-1" d="M128.7,31.82v70.11l8,7.33V23.76a4,4,0,0,0-6.42-3.18L80.83,58.09l6,5.49Z"/><path class="cls-1" d="M186,214.74a4,4,0,0,0,5.66,5.66,129.05,129.05,0,0,0,13.53-15.87l-5.94-5.44A122.37,122.37,0,0,1,186,214.74Z"/><path class="cls-1" d="M221.61,128.77a121.4,121.4,0,0,1-10.19,48.91l6.2,5.68a129.81,129.81,0,0,0-26-146.21A4,4,0,1,0,186,42.81,120.74,120.74,0,0,1,221.61,128.77Z"/><path class="cls-1" d="M222,250.72a4,4,0,0,0,5.66,5.66,181.63,181.63,0,0,0,15.26-17.32L237,233.64A173.61,173.61,0,0,1,222,250.72Z"/><path class="cls-1" d="M272.49,128.77a171.5,171.5,0,0,1-22.09,84.61l6,5.54A180.69,180.69,0,0,0,227.64,1.17,4,4,0,0,0,222,6.83,171.29,171.29,0,0,1,272.49,128.77Z"/><path class="cls-1" d="M252.2,225.89l-6-5.49-32.34-29.62-6.09-5.57-71.08-65.1-8-7.33L80.35,68.5l-6-5.49L6.7,1.05A4,4,0,1,0,1.3,7l66.58,61,6,5.49,54.83,50.21,8,7.33,67,61.38,6,5.51,32,29.31,5.95,5.45,26.1,23.9a4,4,0,1,0,5.4-5.9Z"/></g></g></svg>