<svg xmlns="http://www.w3.org/2000/svg" viewBox="0 0 129.35 129.36"><defs><style>.cls-1{isolation:isolate;}.cls-2{mix-blend-mode:overlay;}.cls-3{fill:#fff;}</style></defs><title>vitesse_fill_1</title><g class="cls-1"><g id="Calque_2" data-name="Calque 2"><g id="Calque_3" data-name="Calque 3" class="cls-2"><path class="cls-3" d="M57.24,28.93a2.7,2.7,0,0,0,0-.28.19.19,0,0,1,0,.08A1.36,1.36,0,0,1,57.24,28.93Z"/><path class="cls-3" d="M126.24,0H3.11A3.12,3.12,0,0,0,0,3.12V126.25a3.11,3.11,0,0,0,3.11,3.11H126.24a3.11,3.11,0,0,0,3.11-3.11V3.12A3.12,3.12,0,0,0,126.24,0ZM27.52,52.92,48.73,31.71H38.92a2.5,2.5,0,0,1,0-5H54.76a2.61,2.61,0,0,1,.48.05l.23,0a2.56,2.56,0,0,1,1.06.63,1,1,0,0,1,.17.18,3.18,3.18,0,0,1,.28.43,1.07,1.07,0,0,1,.1.22,1.43,1.43,0,0,1,.09.27.17.17,0,0,1,0,.1s0,0,0,0a.19.19,0,0,1,0,.08,1.91,1.91,0,0,1,.05.48V45.05a2.5,2.5,0,0,1-5,0V35.24L31.06,56.46a2.51,2.51,0,0,1-3.54,0A2.5,2.5,0,0,1,27.52,52.92Zm75,37.43a2.5,2.5,0,0,1-5,0v-9.8l-21.21,21.2a2.46,2.46,0,0,1-1.76.74,2.51,2.51,0,0,1-1.77-4.27L94,77H84.22a2.5,2.5,0,0,1,0-5h15.84a2.49,2.49,0,0,1,2.5,2.5Zm0-36a2.5,2.5,0,0,1-5,0V35.25l-66.5,66.5a2.5,2.5,0,0,1-3.54-3.53L94,31.71H74.92a2.5,2.5,0,0,1,0-5h25.14a2.49,2.49,0,0,1,2.5,2.5Z"/></g></g></g></svg>